<svg xmlns="http://www.w3.org/2000/svg" width="27.486" height="37.268" viewBox="0 0 27.486 37.268">
  <g id="icon" transform="translate(-349 -997)">
    <path id="Combined-Shape" d="M20.032,0V27.205a27.175,27.175,0,0,1-7.547,3.135,27.753,27.753,0,0,1-6.783.873A20.588,20.588,0,0,1,0,30.459V3.255H0a17.972,17.972,0,0,0,1.99.452c.641.109,1.306.189,1.99.238q.84.063,1.717.063a27.781,27.781,0,0,0,6.783-.873A27.183,27.183,0,0,0,20.032,0ZM16.051,6.245q-.252.086-.507.168h.507Z" transform="translate(349 1003.056)" fill="#a4a4a4" fill-rule="evenodd"/>
    <path id="Combined-Shape-2" data-name="Combined-Shape" d="M22.361,0V30.047a30.513,30.513,0,0,1-8.425,3.462,31.293,31.293,0,0,1-7.572.964A23.212,23.212,0,0,1,0,33.642V3.595H0a20.246,20.246,0,0,0,2.222.5c.715.12,1.457.209,2.222.263q.937.069,1.917.069a31.325,31.325,0,0,0,7.572-.964A30.522,30.522,0,0,0,22.361,0Z" transform="translate(354.125 997)" fill="#a4a4a4" fill-rule="evenodd"/>
  </g>
</svg>
