<svg xmlns="http://www.w3.org/2000/svg" width="31.585" height="35.417" viewBox="0 0 31.585 35.417">
  <g id="floors" transform="translate(-887 -998)">
    <path id="Path" d="M30.587,8.615H.8a.81.81,0,0,1-.693-.386A.765.765,0,0,1,.1,7.452L4.126.4a.809.809,0,0,1,.7-.4H34.612A.81.81,0,0,1,35.3.386a.765.765,0,0,1,.01.777L31.29,8.211A.809.809,0,0,1,30.587,8.615Z" transform="matrix(0, -1, 1, 0, 887, 1033.416)" fill="#a4a4a4"/>
    <path id="Path-2" data-name="Path" d="M30.587,8.615H.8a.81.81,0,0,1-.693-.386A.765.765,0,0,1,.1,7.452L4.126.4a.809.809,0,0,1,.7-.4H34.612A.81.81,0,0,1,35.3.386a.765.765,0,0,1,.01.777L31.29,8.211A.809.809,0,0,1,30.587,8.615Z" transform="matrix(0, -1, 1, 0, 898.486, 1033.417)" fill="#a4a4a4"/>
    <path id="Path-3" data-name="Path" d="M30.587,8.615H.8a.81.81,0,0,1-.693-.386A.765.765,0,0,1,.1,7.452L4.126.4a.809.809,0,0,1,.7-.4H34.612A.81.81,0,0,1,35.3.386a.765.765,0,0,1,.01.777L31.29,8.211A.809.809,0,0,1,30.587,8.615Z" transform="matrix(0, -1, 1, 0, 909.971, 1033.417)" fill="#a4a4a4"/>
  </g>
</svg>
